<?xml version="1.0" encoding="UTF-8"?>
<svg id="Layer_1" data-name="Layer 1" xmlns="http://www.w3.org/2000/svg" viewBox="0 0 391.68 171.38">
  <defs>
    <style>
      .cls-1 {
        fill: #22c55e;
        stroke-width: 0px;
      }
    </style>
  </defs>
  <path class="cls-1" d="M391.66,142.02c.13-8.99-.57-27-1.47-35.95-1.78-17.75-7.54-47.19-19.1-68.75-9.53-17.76-22.76-30.18-43.45-32.41-13.88-1.5-23.38,5.23-41.5,15.57-5.86,3.35-11.8,8.86-20.44,2.79-5.89-4.13-16.85-16.46-30.11-18.36-18.92-2.72-35.58,3.45-47.49,18.84-5.93,7.66-10.97,16.28-15,25.1-11.65,25.5-18.11,52.64-17.63,80.6.13,7.93,1.07,15.85,2.22,23.69.87,5.98,3.18,11.82,9.02,14.63,3.88,1.86,8.34,3.07,12.63,3.38,12.89.94,22.65-5.09,30.38-14.96,2.96-3.77,5.77-7.69,8.98-11.23,6.52-7.2,15.23-6.96,21.25.59,3.22,4.04,6.05,8.41,8.98,12.68,1.71,2.5,3.6,4.68,5.7,6.52,1.13,1.2,2.48,2.24,4.12,3.03.12.06.24.11.36.16,3.15,1.77,6.73,2.87,10.82,3.21,1.97.16,3.87.18,5.7.06,10.82-.53,19.28-6.26,26.14-15.01,2.96-3.77,5.77-7.69,8.98-11.23,6.52-7.2,15.23-6.96,21.25.59,3.22,4.04,6.05,8.41,8.98,12.68,5.09,7.44,11.71,12.15,21,12.92,12.39,1.03,22.14-3.72,26.63-13.43,2.3-4.98,2.99-11.7,3.05-15.69Z"/>
  <path class="cls-1" d="M0,82.21c.54-14.52,1.6-32.16,4.72-49.57,1.85-10.3,7.11-19.02,15.32-25.68C30.02-1.12,47.91-2.31,59,4.16c4.25,2.48,7.38,5.89,8.65,10.67,1.89,7.13,3.55,14.31,5.32,21.47,2.3,9.32,7.97,15.71,16.71,19.61,10.68,4.76,21.38,9.47,31.88,14.61,13.46,6.59,22.22,17.15,25.05,32.11,5.85,30.95-9,54.6-36.71,64.67-11.56,4.2-23.73,4.44-35.84,3.81-12.52-.65-24.73-3.1-36.22-8.36-19.15-8.76-30.11-24-34.72-44.2C.61,107.62.13,96.51,0,82.21Z"/>
</svg>